<?xml version="1.0" encoding="utf-8"?>
<!-- Generator: Adobe Illustrator 26.3.1, SVG Export Plug-In . SVG Version: 6.00 Build 0)  -->
<svg version="1.1" id="Calque_1" xmlns="http://www.w3.org/2000/svg" xmlns:xlink="http://www.w3.org/1999/xlink" x="0px" y="0px"
	 viewBox="0 0 512 512" style="enable-background:new 0 0 512 512;" xml:space="preserve">
<style type="text/css">
	.st0{fill:#999999;}
	.st1{fill:#FFFFFF;enable-background:new    ;}
</style>
<path class="st0" d="M113.1,328.5l55,172l-85.9-43c-10.5-5.3-23.4-18.1-28.6-28.6L6.8,333.5C2.3,324.6,0,314.8,0,304.9v-90.3
	L113.1,328.5z M364.6,328.2L305.8,512h-99.6l-58.8-183.8L256,273.9L364.6,328.2z M512,214.6v90.3c0,8.3-3,21.2-6.8,28.6l-47.7,95.4
	c-5.2,10.5-18.1,23.4-28.6,28.6l-85.9,43l55-172L512,214.6z"/>
<path class="st1" d="M7.5,176.9l123.6,123.6L240,246.1V139.3L59,74.1L7.5,176.9z M333.5,6.8C326.1,3,313.2,0,304.9,0h-97.8
	c-9.9,0-19.7,2.3-28.6,6.8L89.7,51.1L256,111l166.3-59.9L333.5,6.8z M453,74.1l-181,65.2v106.9l108.8,54.4L504.4,177L453,74.1z"/>
</svg>
