<?xml version="1.0" encoding="utf-8"?>
<!-- Generator: Adobe Illustrator 26.3.1, SVG Export Plug-In . SVG Version: 6.00 Build 0)  -->
<svg version="1.1" id="Calque_1" xmlns="http://www.w3.org/2000/svg" xmlns:xlink="http://www.w3.org/1999/xlink" x="0px" y="0px"
	 viewBox="0 0 576 512" style="enable-background:new 0 0 576 512;" xml:space="preserve">
<style type="text/css">
	.st0{fill:#FFFFFF;}
	.st1{fill:#99CCFF;enable-background:new    ;}
</style>
<path class="st0" d="M576,368c0,79.5-64.5,144-144,144s-144-64.5-144-144s64.5-144,144-144S576,288.5,576,368z M432,272
	c-13.3,0-24,10.7-24,24s10.7,24,24,24s24-10.7,24-24S445.3,272,432,272z M416,352c-8.8,0-16,7.2-16,16s7.2,16,16,16v48
	c-8.8,0-16,7.2-16,16s7.2,16,16,16h32c8.8,0,16-7.2,16-16s-7.2-16-16-16v-64c0-8.8-7.2-16-16-16H416z"/>
<path class="st1" d="M320,0c35.3,0,64,28.6,64,64v134.6c-73.9,20.9-128,88.8-128,169.4c0,59.1,29.1,111.3,73.7,143.3
	c-3.1,0.4-6.4,0.7-9.7,0.7H64c-35.3,0-64-28.7-64-64V64C0,28.6,28.6,0,64,0H320z M80,128c-8.8,0-16,7.2-16,16s7.2,16,16,16h224
	c8.8,0,16-7.2,16-16s-7.2-16-16-16H80z M80,256h160c8.8,0,16-7.2,16-16s-7.2-16-16-16H80c-8.8,0-16,7.2-16,16S71.2,256,80,256z
	 M80,352h96c8.8,0,16-7.2,16-16s-7.2-16-16-16H80c-8.8,0-16,7.2-16,16S71.2,352,80,352z"/>
</svg>
