<?xml version="1.0" encoding="utf-8"?>
<!-- Generator: Adobe Illustrator 26.3.1, SVG Export Plug-In . SVG Version: 6.00 Build 0)  -->
<svg version="1.1" id="Calque_1" xmlns="http://www.w3.org/2000/svg" xmlns:xlink="http://www.w3.org/1999/xlink" x="0px" y="0px"
	 viewBox="0 0 448 512" style="enable-background:new 0 0 448 512;" xml:space="preserve">
<style type="text/css">
	.st0{fill:#FF9933;}
	.st1{fill:#FFFFFF;enable-background:new    ;}
</style>
<path class="st0" d="M96,384h304c26.5,0,48-21.5,48-48V48c0-26.5-21.5-48-48-48H96C43,0,0,43,0,96v320c0,53,43,96,96,96h320
	c17.7,0,32-14.3,32-31.1c0-18.6-14.3-32.9-32-32.9H97.4c-16.7,0-31.6-12.2-33.2-28.9C62.3,400.1,77.3,384,96,384z M143.1,128h192
	c9.7,0,16.9,7.2,16.9,16s-7.2,16-16,16H143.1c-7.9,0-15.1-7.2-15.1-16S135.2,128,143.1,128z M143.1,192h192c9.7,0,16.9,7.2,16.9,16
	s-7.2,16-16,16H143.1c-7.9,0-15.1-7.2-15.1-16S135.2,192,143.1,192z"/>
<path class="st1" d="M400,384H96c-17.7,0-32,14.3-32,32s14.3,32,32,32h320v-66.9C410.1,382.8,405.6,384,400,384z"/>
</svg>
