<?xml version="1.0" encoding="utf-8"?>
<!-- Generator: Adobe Illustrator 26.3.1, SVG Export Plug-In . SVG Version: 6.00 Build 0)  -->
<svg version="1.1" id="Calque_1" xmlns="http://www.w3.org/2000/svg" xmlns:xlink="http://www.w3.org/1999/xlink" x="0px" y="0px"
	 viewBox="0 0 512 512" style="enable-background:new 0 0 512 512;" xml:space="preserve">
<style type="text/css">
	.st0{fill:#FFFFFF;}
	.st1{fill:#99CC66;enable-background:new    ;}
</style>
<path class="st0" d="M176,112c0-8.8,7.2-16,16-16h128c8.8,0,16,7.2,16,16s-7.2,16-16,16H192C183.2,128,176,120.8,176,112z"/>
<path class="st1" d="M144.6,24.9C137.5,14.2,145.1,0,157.9,0h196.2c12.8,0,20.4,14.2,13.3,24.9L320,96H192L144.6,24.9z M332.1,136.4
	C389.7,172.7,512,250.9,512,416c0,53-43,96-96,96H96c-53,0-96-43-96-96c0-165.1,122.3-243.3,179-279.6c4.9-3.1,9.2-5.9,13-8.4h128
	C323.8,130.5,328.1,133.3,332.1,136.4z"/>
</svg>
